<?xml version="1.0" encoding="UTF-8"?>
<!DOCTYPE xmeml>
<xmeml version="5">
    <sequence>
        <name>Timeline 1 (Resolve)</name>
        <duration>300</duration>
        <rate>
            <timebase>24</timebase>
            <ntsc>false</ntsc>
        </rate>
        <in>-1</in>
        <out>-1</out>
        <timecode>
            <string>01:00:00:00</string>
            <frame>86400</frame>
            <displayformat>NDF</displayformat>
            <rate>
                <timebase>24</timebase>
                <ntsc>false</ntsc>
            </rate>
        </timecode>
        <media>
            <video>
                <track>
                    <clipitem id="plate_v001.mov 0">
                        <name>plate_v001.mov</name>
                        <duration>187</duration>
                        <rate>
                            <timebase>24</timebase>
                            <ntsc>false</ntsc>
                        </rate>
                        <start>0</start>
                        <end>38</end>
                        <enabled>true</enabled>
                        <in>38</in>
                        <out>76</out>
                        <file id="plate_v001.mov 2">
                            <duration>187</duration>
                            <rate>
                                <timebase>24</timebase>
                                <ntsc>false</ntsc>
                            </rate>
                            <name>plate_v001.mov</name>
                            <pathurl>file:///Volumes/Macintosh%20HD/Users/woong/onsetdata/plate_v001.mov</pathurl>
                            <timecode>
                                <string>23:47:58:00</string>
                                <displayformat>NDF</displayformat>
                                <rate>
                                    <timebase>24</timebase>
                                    <ntsc>false</ntsc>
                                </rate>
                            </timecode>
                            <media>
                                <video>
                                    <duration>187</duration>
                                    <samplecharacteristics>
                                        <width>1920</width>
                                        <height>1080</height>
                                    </samplecharacteristics>
                                </video>
                                <audio>
                                    <channelcount>2</channelcount>
                                </audio>
                            </media>
                        </file>
                        <compositemode>normal</compositemode>
                        <filter>
                            <enabled>true</enabled>
                            <start>0</start>
                            <end>187</end>
                            <effect>
                                <name>Opacity</name>
                                <effectid>opacity</effectid>
                                <effecttype>motion</effecttype>
                                <mediatype>video</mediatype>
                                <effectcategory>motion</effectcategory>
                                <parameter>
                                    <name>opacity</name>
                                    <parameterid>opacity</parameterid>
                                    <value>100</value>
                                    <valuemin>0</valuemin>
                                    <valuemax>100</valuemax>
                                </parameter>
                            </effect>
                        </filter>
                        <filter>
                            <enabled>true</enabled>
                            <start>0</start>
                            <end>187</end>
                            <effect>
                                <name>Basic Motion</name>
                                <effectid>basic</effectid>
                                <effecttype>motion</effecttype>
                                <mediatype>video</mediatype>
                                <effectcategory>motion</effectcategory>
                                <parameter>
                                    <name>Scale</name>
                                    <parameterid>scale</parameterid>
                                    <value>100</value>
                                    <valuemin>0</valuemin>
                                    <valuemax>10000</valuemax>
                                </parameter>
                                <parameter>
                                    <name>Center</name>
                                    <parameterid>center</parameterid>
                                    <value>
                                        <horiz>0</horiz>
                                        <vert>0</vert>
                                    </value>
                                </parameter>
                                <parameter>
                                    <name>Rotation</name>
                                    <parameterid>rotation</parameterid>
                                    <value>0</value>
                                    <valuemin>-100000</valuemin>
                                    <valuemax>100000</valuemax>
                                </parameter>
                                <parameter>
                                    <name>Anchor Point</name>
                                    <parameterid>centerOffset</parameterid>
                                    <value>
                                        <horiz>0</horiz>
                                        <vert>0</vert>
                                    </value>
                                </parameter>
                            </effect>
                        </filter>
                        <filter>
                            <enabled>true</enabled>
                            <start>0</start>
                            <end>187</end>
                            <effect>
                                <name>Crop</name>
                                <effectid>crop</effectid>
                                <effecttype>motion</effecttype>
                                <mediatype>video</mediatype>
                                <effectcategory>motion</effectcategory>
                                <parameter>
                                    <name>left</name>
                                    <parameterid>left</parameterid>
                                    <value>0</value>
                                    <valuemin>0</valuemin>
                                    <valuemax>100</valuemax>
                                </parameter>
                                <parameter>
                                    <name>right</name>
                                    <parameterid>right</parameterid>
                                    <value>0</value>
                                    <valuemin>0</valuemin>
                                    <valuemax>100</valuemax>
                                </parameter>
                                <parameter>
                                    <name>top</name>
                                    <parameterid>top</parameterid>
                                    <value>0</value>
                                    <valuemin>0</valuemin>
                                    <valuemax>100</valuemax>
                                </parameter>
                                <parameter>
                                    <name>bottom</name>
                                    <parameterid>bottom</parameterid>
                                    <value>0</value>
                                    <valuemin>0</valuemin>
                                    <valuemax>100</valuemax>
                                </parameter>
                            </effect>
                        </filter>
                        <link>
                            <linkclipref>plate_v001.mov 0</linkclipref>
                        </link>
                        <link>
                            <linkclipref>plate_v001.mov 3</linkclipref>
                        </link>
                    </clipitem>
                    <clipitem id="lazypica_1_2000-01-01_1824_C0004.mov 0">
                        <name>lazypica_1_2000-01-01_1824_C0004.mov</name>
                        <duration>141</duration>
                        <rate>
                            <timebase>24</timebase>
                            <ntsc>false</ntsc>
                        </rate>
                        <start>38</start>
                        <end>79</end>
                        <enabled>true</enabled>
                        <in>62</in>
                        <out>103</out>
                        <file id="lazypica_1_2000-01-01_1824_C0004.mov 2">
                            <duration>141</duration>
                            <rate>
                                <timebase>24</timebase>
                                <ntsc>false</ntsc>
                            </rate>
                            <name>lazypica_1_2000-01-01_1824_C0004.mov</name>
                            <pathurl>file:///Volumes/Macintosh%20HD/Users/woong/onsetdata/circle/181223/bmpcc/lazypica_1_2000-01-01_1824_C0004.mov</pathurl>
                            <timecode>
                                <string>18:24:14:00</string>
                                <displayformat>NDF</displayformat>
                                <rate>
                                    <timebase>24</timebase>
                                    <ntsc>false</ntsc>
                                </rate>
                            </timecode>
                            <media>
                                <video>
                                    <duration>141</duration>
                                    <samplecharacteristics>
                                        <width>1920</width>
                                        <height>1080</height>
                                    </samplecharacteristics>
                                </video>
                                <audio>
                                    <channelcount>2</channelcount>
                                </audio>
                            </media>
                        </file>
                        <compositemode>normal</compositemode>
                        <filter>
                            <enabled>true</enabled>
                            <start>0</start>
                            <end>141</end>
                            <effect>
                                <name>Opacity</name>
                                <effectid>opacity</effectid>
                                <effecttype>motion</effecttype>
                                <mediatype>video</mediatype>
                                <effectcategory>motion</effectcategory>
                                <parameter>
                                    <name>opacity</name>
                                    <parameterid>opacity</parameterid>
                                    <value>100</value>
                                    <valuemin>0</valuemin>
                                    <valuemax>100</valuemax>
                                </parameter>
                            </effect>
                        </filter>
                        <filter>
                            <enabled>true</enabled>
                            <start>0</start>
                            <end>141</end>
                            <effect>
                                <name>Basic Motion</name>
                                <effectid>basic</effectid>
                                <effecttype>motion</effecttype>
                                <mediatype>video</mediatype>
                                <effectcategory>motion</effectcategory>
                                <parameter>
                                    <name>Scale</name>
                                    <parameterid>scale</parameterid>
                                    <value>100</value>
                                    <valuemin>0</valuemin>
                                    <valuemax>10000</valuemax>
                                </parameter>
                                <parameter>
                                    <name>Center</name>
                                    <parameterid>center</parameterid>
                                    <value>
                                        <horiz>0</horiz>
                                        <vert>0</vert>
                                    </value>
                                </parameter>
                                <parameter>
                                    <name>Rotation</name>
                                    <parameterid>rotation</parameterid>
                                    <value>0</value>
                                    <valuemin>-100000</valuemin>
                                    <valuemax>100000</valuemax>
                                </parameter>
                                <parameter>
                                    <name>Anchor Point</name>
                                    <parameterid>centerOffset</parameterid>
                                    <value>
                                        <horiz>0</horiz>
                                        <vert>0</vert>
                                    </value>
                                </parameter>
                            </effect>
                        </filter>
                        <filter>
                            <enabled>true</enabled>
                            <start>0</start>
                            <end>141</end>
                            <effect>
                                <name>Crop</name>
                                <effectid>crop</effectid>
                                <effecttype>motion</effecttype>
                                <mediatype>video</mediatype>
                                <effectcategory>motion</effectcategory>
                                <parameter>
                                    <name>left</name>
                                    <parameterid>left</parameterid>
                                    <value>0</value>
                                    <valuemin>0</valuemin>
                                    <valuemax>100</valuemax>
                                </parameter>
                                <parameter>
                                    <name>right</name>
                                    <parameterid>right</parameterid>
                                    <value>0</value>
                                    <valuemin>0</valuemin>
                                    <valuemax>100</valuemax>
                                </parameter>
                                <parameter>
                                    <name>top</name>
                                    <parameterid>top</parameterid>
                                    <value>0</value>
                                    <valuemin>0</valuemin>
                                    <valuemax>100</valuemax>
                                </parameter>
                                <parameter>
                                    <name>bottom</name>
                                    <parameterid>bottom</parameterid>
                                    <value>0</value>
                                    <valuemin>0</valuemin>
                                    <valuemax>100</valuemax>
                                </parameter>
                            </effect>
                        </filter>
                        <link>
                            <linkclipref>lazypica_1_2000-01-01_1824_C0004.mov 0</linkclipref>
                        </link>
                        <link>
                            <linkclipref>lazypica_1_2000-01-01_1824_C0004.mov 3</linkclipref>
                        </link>
                    </clipitem>
                    <clipitem id="lazypica_1_2000-01-01_1827_C0005.mov 0">
                        <name>lazypica_1_2000-01-01_1827_C0005.mov</name>
                        <duration>195</duration>
                        <rate>
                            <timebase>24</timebase>
                            <ntsc>false</ntsc>
                        </rate>
                        <start>79</start>
                        <end>136</end>
                        <enabled>true</enabled>
                        <in>55</in>
                        <out>112</out>
                        <file id="lazypica_1_2000-01-01_1827_C0005.mov 2">
                            <duration>195</duration>
                            <rate>
                                <timebase>24</timebase>
                                <ntsc>false</ntsc>
                            </rate>
                            <name>lazypica_1_2000-01-01_1827_C0005.mov</name>
                            <pathurl>file:///Volumes/Macintosh%20HD/Users/woong/onsetdata/circle/181223/bmpcc/lazypica_1_2000-01-01_1827_C0005.mov</pathurl>
                            <timecode>
                                <string>18:27:14:00</string>
                                <displayformat>NDF</displayformat>
                                <rate>
                                    <timebase>24</timebase>
                                    <ntsc>false</ntsc>
                                </rate>
                            </timecode>
                            <media>
                                <video>
                                    <duration>195</duration>
                                    <samplecharacteristics>
                                        <width>1920</width>
                                        <height>1080</height>
                                    </samplecharacteristics>
                                </video>
                                <audio>
                                    <channelcount>2</channelcount>
                                </audio>
                            </media>
                        </file>
                        <compositemode>normal</compositemode>
                        <filter>
                            <enabled>true</enabled>
                            <start>0</start>
                            <end>195</end>
                            <effect>
                                <name>Opacity</name>
                                <effectid>opacity</effectid>
                                <effecttype>motion</effecttype>
                                <mediatype>video</mediatype>
                                <effectcategory>motion</effectcategory>
                                <parameter>
                                    <name>opacity</name>
                                    <parameterid>opacity</parameterid>
                                    <value>100</value>
                                    <valuemin>0</valuemin>
                                    <valuemax>100</valuemax>
                                </parameter>
                            </effect>
                        </filter>
                        <filter>
                            <enabled>true</enabled>
                            <start>0</start>
                            <end>195</end>
                            <effect>
                                <name>Basic Motion</name>
                                <effectid>basic</effectid>
                                <effecttype>motion</effecttype>
                                <mediatype>video</mediatype>
                                <effectcategory>motion</effectcategory>
                                <parameter>
                                    <name>Scale</name>
                                    <parameterid>scale</parameterid>
                                    <value>100</value>
                                    <valuemin>0</valuemin>
                                    <valuemax>10000</valuemax>
                                </parameter>
                                <parameter>
                                    <name>Center</name>
                                    <parameterid>center</parameterid>
                                    <value>
                                        <horiz>0</horiz>
                                        <vert>0</vert>
                                    </value>
                                </parameter>
                                <parameter>
                                    <name>Rotation</name>
                                    <parameterid>rotation</parameterid>
                                    <value>0</value>
                                    <valuemin>-100000</valuemin>
                                    <valuemax>100000</valuemax>
                                </parameter>
                                <parameter>
                                    <name>Anchor Point</name>
                                    <parameterid>centerOffset</parameterid>
                                    <value>
                                        <horiz>0</horiz>
                                        <vert>0</vert>
                                    </value>
                                </parameter>
                            </effect>
                        </filter>
                        <filter>
                            <enabled>true</enabled>
                            <start>0</start>
                            <end>195</end>
                            <effect>
                                <name>Crop</name>
                                <effectid>crop</effectid>
                                <effecttype>motion</effecttype>
                                <mediatype>video</mediatype>
                                <effectcategory>motion</effectcategory>
                                <parameter>
                                    <name>left</name>
                                    <parameterid>left</parameterid>
                                    <value>0</value>
                                    <valuemin>0</valuemin>
                                    <valuemax>100</valuemax>
                                </parameter>
                                <parameter>
                                    <name>right</name>
                                    <parameterid>right</parameterid>
                                    <value>0</value>
                                    <valuemin>0</valuemin>
                                    <valuemax>100</valuemax>
                                </parameter>
                                <parameter>
                                    <name>top</name>
                                    <parameterid>top</parameterid>
                                    <value>0</value>
                                    <valuemin>0</valuemin>
                                    <valuemax>100</valuemax>
                                </parameter>
                                <parameter>
                                    <name>bottom</name>
                                    <parameterid>bottom</parameterid>
                                    <value>0</value>
                                    <valuemin>0</valuemin>
                                    <valuemax>100</valuemax>
                                </parameter>
                            </effect>
                        </filter>
                        <link>
                            <linkclipref>lazypica_1_2000-01-01_1827_C0005.mov 0</linkclipref>
                        </link>
                        <link>
                            <linkclipref>lazypica_1_2000-01-01_1827_C0005.mov 3</linkclipref>
                        </link>
                    </clipitem>
                    <clipitem id="lazypica_1_2000-01-01_1955_C0010.mov 0">
                        <name>lazypica_1_2000-01-01_1955_C0010.mov</name>
                        <duration>148</duration>
                        <rate>
                            <timebase>24</timebase>
                            <ntsc>false</ntsc>
                        </rate>
                        <start>136</start>
                        <end>184</end>
                        <enabled>true</enabled>
                        <in>50</in>
                        <out>98</out>
                        <file id="lazypica_1_2000-01-01_1955_C0010.mov 2">
                            <duration>148</duration>
                            <rate>
                                <timebase>24</timebase>
                                <ntsc>false</ntsc>
                            </rate>
                            <name>lazypica_1_2000-01-01_1955_C0010.mov</name>
                            <pathurl>file:///Volumes/Macintosh%20HD/Users/woong/onsetdata/circle/181223/bmpcc/lazypica_1_2000-01-01_1955_C0010.mov</pathurl>
                            <timecode>
                                <string>19:55:55:00</string>
                                <displayformat>NDF</displayformat>
                                <rate>
                                    <timebase>24</timebase>
                                    <ntsc>false</ntsc>
                                </rate>
                            </timecode>
                            <media>
                                <video>
                                    <duration>148</duration>
                                    <samplecharacteristics>
                                        <width>1920</width>
                                        <height>1080</height>
                                    </samplecharacteristics>
                                </video>
                                <audio>
                                    <channelcount>2</channelcount>
                                </audio>
                            </media>
                        </file>
                        <compositemode>normal</compositemode>
                        <filter>
                            <enabled>true</enabled>
                            <start>0</start>
                            <end>148</end>
                            <effect>
                                <name>Opacity</name>
                                <effectid>opacity</effectid>
                                <effecttype>motion</effecttype>
                                <mediatype>video</mediatype>
                                <effectcategory>motion</effectcategory>
                                <parameter>
                                    <name>opacity</name>
                                    <parameterid>opacity</parameterid>
                                    <value>100</value>
                                    <valuemin>0</valuemin>
                                    <valuemax>100</valuemax>
                                </parameter>
                            </effect>
                        </filter>
                        <filter>
                            <enabled>true</enabled>
                            <start>0</start>
                            <end>148</end>
                            <effect>
                                <name>Basic Motion</name>
                                <effectid>basic</effectid>
                                <effecttype>motion</effecttype>
                                <mediatype>video</mediatype>
                                <effectcategory>motion</effectcategory>
                                <parameter>
                                    <name>Scale</name>
                                    <parameterid>scale</parameterid>
                                    <value>100</value>
                                    <valuemin>0</valuemin>
                                    <valuemax>10000</valuemax>
                                </parameter>
                                <parameter>
                                    <name>Center</name>
                                    <parameterid>center</parameterid>
                                    <value>
                                        <horiz>0</horiz>
                                        <vert>0</vert>
                                    </value>
                                </parameter>
                                <parameter>
                                    <name>Rotation</name>
                                    <parameterid>rotation</parameterid>
                                    <value>0</value>
                                    <valuemin>-100000</valuemin>
                                    <valuemax>100000</valuemax>
                                </parameter>
                                <parameter>
                                    <name>Anchor Point</name>
                                    <parameterid>centerOffset</parameterid>
                                    <value>
                                        <horiz>0</horiz>
                                        <vert>0</vert>
                                    </value>
                                </parameter>
                            </effect>
                        </filter>
                        <filter>
                            <enabled>true</enabled>
                            <start>0</start>
                            <end>148</end>
                            <effect>
                                <name>Crop</name>
                                <effectid>crop</effectid>
                                <effecttype>motion</effecttype>
                                <mediatype>video</mediatype>
                                <effectcategory>motion</effectcategory>
                                <parameter>
                                    <name>left</name>
                                    <parameterid>left</parameterid>
                                    <value>0</value>
                                    <valuemin>0</valuemin>
                                    <valuemax>100</valuemax>
                                </parameter>
                                <parameter>
                                    <name>right</name>
                                    <parameterid>right</parameterid>
                                    <value>0</value>
                                    <valuemin>0</valuemin>
                                    <valuemax>100</valuemax>
                                </parameter>
                                <parameter>
                                    <name>top</name>
                                    <parameterid>top</parameterid>
                                    <value>0</value>
                                    <valuemin>0</valuemin>
                                    <valuemax>100</valuemax>
                                </parameter>
                                <parameter>
                                    <name>bottom</name>
                                    <parameterid>bottom</parameterid>
                                    <value>0</value>
                                    <valuemin>0</valuemin>
                                    <valuemax>100</valuemax>
                                </parameter>
                            </effect>
                        </filter>
                        <link>
                            <linkclipref>lazypica_1_2000-01-01_1955_C0010.mov 0</linkclipref>
                        </link>
                        <link>
                            <linkclipref>lazypica_1_2000-01-01_1955_C0010.mov 3</linkclipref>
                        </link>
                    </clipitem>
                    <clipitem id="lazypica_1_2000-01-01_1829_C0006.mov 0">
                        <name>lazypica_1_2000-01-01_1829_C0006.mov</name>
                        <duration>138</duration>
                        <rate>
                            <timebase>24</timebase>
                            <ntsc>false</ntsc>
                        </rate>
                        <start>184</start>
                        <end>243</end>
                        <enabled>true</enabled>
                        <in>31</in>
                        <out>90</out>
                        <file id="lazypica_1_2000-01-01_1829_C0006.mov 2">
                            <duration>138</duration>
                            <rate>
                                <timebase>24</timebase>
                                <ntsc>false</ntsc>
                            </rate>
                            <name>lazypica_1_2000-01-01_1829_C0006.mov</name>
                            <pathurl>file:///Volumes/Macintosh%20HD/Users/woong/onsetdata/circle/181223/bmpcc/lazypica_1_2000-01-01_1829_C0006.mov</pathurl>
                            <timecode>
                                <string>18:29:25:00</string>
                                <displayformat>NDF</displayformat>
                                <rate>
                                    <timebase>24</timebase>
                                    <ntsc>false</ntsc>
                                </rate>
                            </timecode>
                            <media>
                                <video>
                                    <duration>138</duration>
                                    <samplecharacteristics>
                                        <width>1920</width>
                                        <height>1080</height>
                                    </samplecharacteristics>
                                </video>
                                <audio>
                                    <channelcount>2</channelcount>
                                </audio>
                            </media>
                        </file>
                        <compositemode>normal</compositemode>
                        <filter>
                            <enabled>true</enabled>
                            <start>0</start>
                            <end>138</end>
                            <effect>
                                <name>Opacity</name>
                                <effectid>opacity</effectid>
                                <effecttype>motion</effecttype>
                                <mediatype>video</mediatype>
                                <effectcategory>motion</effectcategory>
                                <parameter>
                                    <name>opacity</name>
                                    <parameterid>opacity</parameterid>
                                    <value>100</value>
                                    <valuemin>0</valuemin>
                                    <valuemax>100</valuemax>
                                </parameter>
                            </effect>
                        </filter>
                        <filter>
                            <enabled>true</enabled>
                            <start>0</start>
                            <end>138</end>
                            <effect>
                                <name>Basic Motion</name>
                                <effectid>basic</effectid>
                                <effecttype>motion</effecttype>
                                <mediatype>video</mediatype>
                                <effectcategory>motion</effectcategory>
                                <parameter>
                                    <name>Scale</name>
                                    <parameterid>scale</parameterid>
                                    <value>100</value>
                                    <valuemin>0</valuemin>
                                    <valuemax>10000</valuemax>
                                </parameter>
                                <parameter>
                                    <name>Center</name>
                                    <parameterid>center</parameterid>
                                    <value>
                                        <horiz>0</horiz>
                                        <vert>0</vert>
                                    </value>
                                </parameter>
                                <parameter>
                                    <name>Rotation</name>
                                    <parameterid>rotation</parameterid>
                                    <value>0</value>
                                    <valuemin>-100000</valuemin>
                                    <valuemax>100000</valuemax>
                                </parameter>
                                <parameter>
                                    <name>Anchor Point</name>
                                    <parameterid>centerOffset</parameterid>
                                    <value>
                                        <horiz>0</horiz>
                                        <vert>0</vert>
                                    </value>
                                </parameter>
                            </effect>
                        </filter>
                        <filter>
                            <enabled>true</enabled>
                            <start>0</start>
                            <end>138</end>
                            <effect>
                                <name>Crop</name>
                                <effectid>crop</effectid>
                                <effecttype>motion</effecttype>
                                <mediatype>video</mediatype>
                                <effectcategory>motion</effectcategory>
                                <parameter>
                                    <name>left</name>
                                    <parameterid>left</parameterid>
                                    <value>0</value>
                                    <valuemin>0</valuemin>
                                    <valuemax>100</valuemax>
                                </parameter>
                                <parameter>
                                    <name>right</name>
                                    <parameterid>right</parameterid>
                                    <value>0</value>
                                    <valuemin>0</valuemin>
                                    <valuemax>100</valuemax>
                                </parameter>
                                <parameter>
                                    <name>top</name>
                                    <parameterid>top</parameterid>
                                    <value>0</value>
                                    <valuemin>0</valuemin>
                                    <valuemax>100</valuemax>
                                </parameter>
                                <parameter>
                                    <name>bottom</name>
                                    <parameterid>bottom</parameterid>
                                    <value>0</value>
                                    <valuemin>0</valuemin>
                                    <valuemax>100</valuemax>
                                </parameter>
                            </effect>
                        </filter>
                        <link>
                            <linkclipref>lazypica_1_2000-01-01_1829_C0006.mov 0</linkclipref>
                        </link>
                        <link>
                            <linkclipref>lazypica_1_2000-01-01_1829_C0006.mov 3</linkclipref>
                        </link>
                    </clipitem>
                    <clipitem id="lazypica_1_2000-01-01_1832_C0007.mov 0">
                        <name>lazypica_1_2000-01-01_1832_C0007.mov</name>
                        <duration>217</duration>
                        <rate>
                            <timebase>24</timebase>
                            <ntsc>false</ntsc>
                        </rate>
                        <start>243</start>
                        <end>300</end>
                        <enabled>true</enabled>
                        <in>82</in>
                        <out>139</out>
                        <file id="lazypica_1_2000-01-01_1832_C0007.mov 2">
                            <duration>217</duration>
                            <rate>
                                <timebase>24</timebase>
                                <ntsc>false</ntsc>
                            </rate>
                            <name>lazypica_1_2000-01-01_1832_C0007.mov</name>
                            <pathurl>file:///Volumes/Macintosh%20HD/Users/woong/onsetdata/circle/181223/bmpcc/lazypica_1_2000-01-01_1832_C0007.mov</pathurl>
                            <timecode>
                                <string>18:32:45:00</string>
                                <displayformat>NDF</displayformat>
                                <rate>
                                    <timebase>24</timebase>
                                    <ntsc>false</ntsc>
                                </rate>
                            </timecode>
                            <media>
                                <video>
                                    <duration>217</duration>
                                    <samplecharacteristics>
                                        <width>1920</width>
                                        <height>1080</height>
                                    </samplecharacteristics>
                                </video>
                                <audio>
                                    <channelcount>2</channelcount>
                                </audio>
                            </media>
                        </file>
                        <compositemode>normal</compositemode>
                        <filter>
                            <enabled>true</enabled>
                            <start>0</start>
                            <end>217</end>
                            <effect>
                                <name>Opacity</name>
                                <effectid>opacity</effectid>
                                <effecttype>motion</effecttype>
                                <mediatype>video</mediatype>
                                <effectcategory>motion</effectcategory>
                                <parameter>
                                    <name>opacity</name>
                                    <parameterid>opacity</parameterid>
                                    <value>100</value>
                                    <valuemin>0</valuemin>
                                    <valuemax>100</valuemax>
                                </parameter>
                            </effect>
                        </filter>
                        <filter>
                            <enabled>true</enabled>
                            <start>0</start>
                            <end>217</end>
                            <effect>
                                <name>Basic Motion</name>
                                <effectid>basic</effectid>
                                <effecttype>motion</effecttype>
                                <mediatype>video</mediatype>
                                <effectcategory>motion</effectcategory>
                                <parameter>
                                    <name>Scale</name>
                                    <parameterid>scale</parameterid>
                                    <value>100</value>
                                    <valuemin>0</valuemin>
                                    <valuemax>10000</valuemax>
                                </parameter>
                                <parameter>
                                    <name>Center</name>
                                    <parameterid>center</parameterid>
                                    <value>
                                        <horiz>0</horiz>
                                        <vert>0</vert>
                                    </value>
                                </parameter>
                                <parameter>
                                    <name>Rotation</name>
                                    <parameterid>rotation</parameterid>
                                    <value>0</value>
                                    <valuemin>-100000</valuemin>
                                    <valuemax>100000</valuemax>
                                </parameter>
                                <parameter>
                                    <name>Anchor Point</name>
                                    <parameterid>centerOffset</parameterid>
                                    <value>
                                        <horiz>0</horiz>
                                        <vert>0</vert>
                                    </value>
                                </parameter>
                            </effect>
                        </filter>
                        <filter>
                            <enabled>true</enabled>
                            <start>0</start>
                            <end>217</end>
                            <effect>
                                <name>Crop</name>
                                <effectid>crop</effectid>
                                <effecttype>motion</effecttype>
                                <mediatype>video</mediatype>
                                <effectcategory>motion</effectcategory>
                                <parameter>
                                    <name>left</name>
                                    <parameterid>left</parameterid>
                                    <value>0</value>
                                    <valuemin>0</valuemin>
                                    <valuemax>100</valuemax>
                                </parameter>
                                <parameter>
                                    <name>right</name>
                                    <parameterid>right</parameterid>
                                    <value>0</value>
                                    <valuemin>0</valuemin>
                                    <valuemax>100</valuemax>
                                </parameter>
                                <parameter>
                                    <name>top</name>
                                    <parameterid>top</parameterid>
                                    <value>0</value>
                                    <valuemin>0</valuemin>
                                    <valuemax>100</valuemax>
                                </parameter>
                                <parameter>
                                    <name>bottom</name>
                                    <parameterid>bottom</parameterid>
                                    <value>0</value>
                                    <valuemin>0</valuemin>
                                    <valuemax>100</valuemax>
                                </parameter>
                            </effect>
                        </filter>
                        <link>
                            <linkclipref>lazypica_1_2000-01-01_1832_C0007.mov 0</linkclipref>
                        </link>
                        <link>
                            <linkclipref>lazypica_1_2000-01-01_1832_C0007.mov 3</linkclipref>
                        </link>
                    </clipitem>
                    <enabled>true</enabled>
                    <locked>false</locked>
                </track>
                <format>
                    <samplecharacteristics>
                        <width>1920</width>
                        <height>1080</height>
                        <pixelaspectratio>square</pixelaspectratio>
                        <rate>
                            <timebase>24</timebase>
                            <ntsc>false</ntsc>
                        </rate>
                        <codec>
                            <appspecificdata>
                                <appname>Final Cut Pro</appname>
                                <appmanufacturer>Apple Inc.</appmanufacturer>
                                <data>
                                    <qtcodec/>
                                </data>
                            </appspecificdata>
                        </codec>
                    </samplecharacteristics>
                </format>
            </video>
            <audio>
                <track>
                    <clipitem id="plate_v001.mov 3">
                        <name>plate_v001.mov</name>
                        <duration>187</duration>
                        <rate>
                            <timebase>24</timebase>
                            <ntsc>false</ntsc>
                        </rate>
                        <start>0</start>
                        <end>38</end>
                        <enabled>true</enabled>
                        <in>38</in>
                        <out>76</out>
                        <file id="plate_v001.mov 2"/>
                        <sourcetrack>
                            <mediatype>audio</mediatype>
                            <trackindex>1</trackindex>
                        </sourcetrack>
                        <link>
                            <linkclipref>plate_v001.mov 0</linkclipref>
                        </link>
                        <link>
                            <linkclipref>plate_v001.mov 3</linkclipref>
                        </link>
                    </clipitem>
                    <clipitem id="lazypica_1_2000-01-01_1824_C0004.mov 3">
                        <name>lazypica_1_2000-01-01_1824_C0004.mov</name>
                        <duration>141</duration>
                        <rate>
                            <timebase>24</timebase>
                            <ntsc>false</ntsc>
                        </rate>
                        <start>38</start>
                        <end>79</end>
                        <enabled>true</enabled>
                        <in>62</in>
                        <out>103</out>
                        <file id="lazypica_1_2000-01-01_1824_C0004.mov 2"/>
                        <sourcetrack>
                            <mediatype>audio</mediatype>
                            <trackindex>1</trackindex>
                        </sourcetrack>
                        <link>
                            <linkclipref>lazypica_1_2000-01-01_1824_C0004.mov 0</linkclipref>
                        </link>
                        <link>
                            <linkclipref>lazypica_1_2000-01-01_1824_C0004.mov 3</linkclipref>
                        </link>
                    </clipitem>
                    <clipitem id="lazypica_1_2000-01-01_1827_C0005.mov 3">
                        <name>lazypica_1_2000-01-01_1827_C0005.mov</name>
                        <duration>195</duration>
                        <rate>
                            <timebase>24</timebase>
                            <ntsc>false</ntsc>
                        </rate>
                        <start>79</start>
                        <end>136</end>
                        <enabled>true</enabled>
                        <in>55</in>
                        <out>112</out>
                        <file id="lazypica_1_2000-01-01_1827_C0005.mov 2"/>
                        <sourcetrack>
                            <mediatype>audio</mediatype>
                            <trackindex>1</trackindex>
                        </sourcetrack>
                        <link>
                            <linkclipref>lazypica_1_2000-01-01_1827_C0005.mov 0</linkclipref>
                        </link>
                        <link>
                            <linkclipref>lazypica_1_2000-01-01_1827_C0005.mov 3</linkclipref>
                        </link>
                    </clipitem>
                    <clipitem id="lazypica_1_2000-01-01_1955_C0010.mov 3">
                        <name>lazypica_1_2000-01-01_1955_C0010.mov</name>
                        <duration>148</duration>
                        <rate>
                            <timebase>24</timebase>
                            <ntsc>false</ntsc>
                        </rate>
                        <start>136</start>
                        <end>184</end>
                        <enabled>true</enabled>
                        <in>50</in>
                        <out>98</out>
                        <file id="lazypica_1_2000-01-01_1955_C0010.mov 2"/>
                        <sourcetrack>
                            <mediatype>audio</mediatype>
                            <trackindex>1</trackindex>
                        </sourcetrack>
                        <link>
                            <linkclipref>lazypica_1_2000-01-01_1955_C0010.mov 0</linkclipref>
                        </link>
                        <link>
                            <linkclipref>lazypica_1_2000-01-01_1955_C0010.mov 3</linkclipref>
                        </link>
                    </clipitem>
                    <clipitem id="lazypica_1_2000-01-01_1829_C0006.mov 3">
                        <name>lazypica_1_2000-01-01_1829_C0006.mov</name>
                        <duration>138</duration>
                        <rate>
                            <timebase>24</timebase>
                            <ntsc>false</ntsc>
                        </rate>
                        <start>184</start>
                        <end>243</end>
                        <enabled>true</enabled>
                        <in>31</in>
                        <out>90</out>
                        <file id="lazypica_1_2000-01-01_1829_C0006.mov 2"/>
                        <sourcetrack>
                            <mediatype>audio</mediatype>
                            <trackindex>1</trackindex>
                        </sourcetrack>
                        <link>
                            <linkclipref>lazypica_1_2000-01-01_1829_C0006.mov 0</linkclipref>
                        </link>
                        <link>
                            <linkclipref>lazypica_1_2000-01-01_1829_C0006.mov 3</linkclipref>
                        </link>
                    </clipitem>
                    <clipitem id="lazypica_1_2000-01-01_1832_C0007.mov 3">
                        <name>lazypica_1_2000-01-01_1832_C0007.mov</name>
                        <duration>217</duration>
                        <rate>
                            <timebase>24</timebase>
                            <ntsc>false</ntsc>
                        </rate>
                        <start>243</start>
                        <end>300</end>
                        <enabled>true</enabled>
                        <in>82</in>
                        <out>139</out>
                        <file id="lazypica_1_2000-01-01_1832_C0007.mov 2"/>
                        <sourcetrack>
                            <mediatype>audio</mediatype>
                            <trackindex>1</trackindex>
                        </sourcetrack>
                        <link>
                            <linkclipref>lazypica_1_2000-01-01_1832_C0007.mov 0</linkclipref>
                        </link>
                        <link>
                            <linkclipref>lazypica_1_2000-01-01_1832_C0007.mov 3</linkclipref>
                        </link>
                    </clipitem>
                    <enabled>true</enabled>
                    <locked>false</locked>
                </track>
            </audio>
        </media>
    </sequence>
</xmeml>
